<svg id="svg" version="1.1" width="400" height="380" xmlns="http://www.w3.org/2000/svg" xmlns:xlink="http://www.w3.org/1999/xlink" ><g id="svgg"><path id="path0" d="M103.394 26.371 L 103.394 52.742 110.574 52.767 C 138.880 52.865,144.640 55.008,148.189 66.759 C 149.456 70.952,149.855 304.953,148.608 312.179 C 146.506 324.360,141.183 326.843,117.102 326.875 L 103.394 326.893 103.394 353.264 L 103.394 379.634 196.345 379.634 L 289.295 379.634 289.295 353.264 L 289.295 326.893 275.540 326.893 C 252.041 326.893,246.287 323.963,244.256 310.966 C 243.125 303.731,243.335 75.280,244.477 69.600 C 247.227 55.925,251.661 53.598,276.247 52.930 L 289.295 52.576 289.295 26.288 L 289.295 0.000 196.345 0.000 L 103.394 0.000 103.394 26.371 " stroke="none" fill="#000000" fill-rule="evenodd"></path></g></svg>
