<svg id="svg" version="1.1" width="400" height="381" xmlns="http://www.w3.org/2000/svg" xmlns:xlink="http://www.w3.org/1999/xlink" ><g id="svgg"><path id="path0" d="M82.325 2.742 C 81.930 3.675,69.003 33.164,53.597 68.272 C 38.192 103.381,25.593 132.284,25.599 132.502 C 25.605 132.720,36.345 137.619,49.465 143.389 L 73.319 153.881 79.448 143.299 C 120.062 73.182,137.969 61.826,209.627 60.748 L 232.570 60.402 231.478 61.924 C 230.877 62.762,185.256 123.016,130.097 195.822 L 29.809 328.198 29.787 354.439 L 29.765 380.679 174.804 380.669 L 319.843 380.659 344.565 310.639 C 358.162 272.128,369.089 240.428,368.847 240.194 C 368.369 239.733,320.666 223.493,319.831 223.507 C 319.551 223.512,318.051 226.861,316.498 230.949 C 304.774 261.822,284.374 288.049,260.239 303.279 C 238.669 316.891,214.470 321.440,165.716 321.048 L 145.791 320.888 246.243 187.467 L 346.694 54.047 346.715 27.546 L 346.736 1.044 214.890 1.044 L 83.043 1.044 82.325 2.742 " stroke="none" fill="#000000" fill-rule="evenodd"></path></g></svg>
