<svg id="svg" version="1.1" width="400" height="380" xmlns="http://www.w3.org/2000/svg" xmlns:xlink="http://www.w3.org/1999/xlink" ><g id="svgg"><path id="path0" d="M157.653 1.958 C 150.203 21.560,40.401 302.700,38.700 306.527 C 31.812 322.023,23.287 327.415,5.676 327.415 L 0.522 327.415 0.522 353.786 L 0.522 380.157 73.890 380.157 L 147.258 380.157 147.258 353.847 L 147.258 327.537 135.117 327.283 C 118.942 326.945,113.932 325.243,110.424 318.893 C 107.551 313.693,108.364 310.307,120.030 278.851 L 127.293 259.269 184.739 259.136 C 239.088 259.010,242.204 259.053,242.548 259.919 C 248.048 273.766,259.008 309.661,259.008 313.825 C 259.008 323.191,249.745 327.415,229.205 327.415 L 220.888 327.415 220.888 353.786 L 220.888 380.157 310.444 380.157 L 400.000 380.157 400.000 353.863 L 400.000 327.569 392.559 327.262 C 377.293 326.632,372.230 323.399,365.115 309.735 C 361.330 302.467,363.242 307.306,301.211 148.042 C 269.890 67.624,244.149 1.534,244.008 1.175 C 243.806 0.660,234.713 0.522,200.976 0.522 L 158.199 0.522 157.653 1.958 M204.148 153.061 L 222.365 204.439 185.250 204.573 C 164.837 204.646,148.024 204.594,147.886 204.457 C 147.749 204.320,156.177 181.064,166.614 152.776 C 177.052 124.489,185.668 101.421,185.762 101.514 C 185.855 101.608,194.129 124.804,204.148 153.061 " stroke="none" fill="#000000" fill-rule="evenodd"></path></g></svg>
