<svg id="svg" version="1.1" width="400" height="393" xmlns="http://www.w3.org/2000/svg" xmlns:xlink="http://www.w3.org/1999/xlink" ><g id="svgg"><path id="path0" d="M53.343 2.474 C 52.195 5.352,7.311 133.757,7.311 134.162 C 7.311 134.506,52.352 150.886,55.725 151.768 C 56.653 152.011,57.533 150.592,62.784 140.383 C 77.402 111.965,82.527 104.283,94.551 92.764 C 110.200 77.771,126.614 69.782,141.867 69.734 C 149.472 69.711,150.810 70.174,152.480 73.415 C 153.492 75.377,153.981 312.534,152.992 321.307 C 151.209 337.119,146.705 339.912,122.324 340.326 L 107.572 340.577 107.572 366.894 L 107.572 393.211 200.522 393.211 L 293.473 393.211 293.473 366.888 L 293.473 340.565 278.460 340.331 C 254.985 339.965,250.504 337.579,248.497 324.379 C 247.702 319.153,247.199 94.614,247.957 83.752 C 248.791 71.814,250.222 69.987,259.066 69.561 C 276.400 68.726,298.415 81.951,315.908 103.708 C 323.063 112.606,328.350 121.349,339.005 141.906 C 341.871 147.435,344.371 151.964,344.562 151.971 C 344.753 151.978,355.776 148.160,369.059 143.486 L 393.209 134.987 393.210 132.868 C 393.211 131.219,356.387 24.429,348.519 3.264 L 347.694 1.044 329.852 1.051 L 312.010 1.058 309.744 7.318 L 307.478 13.577 200.345 13.572 L 93.211 13.567 91.381 7.436 L 89.551 1.305 71.734 1.168 L 53.918 1.031 53.343 2.474 " stroke="none" fill="#000000" fill-rule="evenodd"></path></g></svg>
